<svg width="478" height="202" viewBox="0 0 478 202" fill="none" xmlns="http://www.w3.org/2000/svg">
<g filter="url(#filter0_d_262_25)">
<path d="M211.694 193L215.502 183.102H216.58L220.416 193H219.478L218.624 190.774H213.458L212.618 193H211.694ZM213.738 190.032H218.344L216.048 183.942L213.738 190.032ZM228.891 193V183.102H229.717V193H228.891ZM239.268 193V183.102H242.908C243.431 183.102 243.907 183.158 244.336 183.27C244.765 183.373 245.129 183.545 245.428 183.788C245.736 184.021 245.969 184.329 246.128 184.712C246.296 185.095 246.38 185.566 246.38 186.126C246.38 186.639 246.282 187.087 246.086 187.47C245.899 187.853 245.629 188.17 245.274 188.422C244.929 188.674 244.513 188.856 244.028 188.968L246.184 193H245.26L243.174 189.108H240.094V193H239.268ZM240.094 188.366H242.516C242.908 188.366 243.281 188.338 243.636 188.282C244 188.217 244.322 188.1 244.602 187.932C244.882 187.764 245.101 187.531 245.26 187.232C245.428 186.933 245.512 186.551 245.512 186.084C245.521 185.505 245.409 185.057 245.176 184.74C244.943 184.413 244.621 184.185 244.21 184.054C243.799 183.923 243.319 183.858 242.768 183.858H240.094V188.366ZM255.456 193V183.102H256.282V192.244H261.938V193H255.456ZM270.44 193V183.102H271.266V193H270.44ZM280.817 193V183.102H281.937L287.831 191.936V183.102H288.671V193H287.579L281.643 184.166V193H280.817ZM298.221 193V183.102H304.703V183.858H299.047V187.708H304.129V188.478H299.047V192.244H304.703V193H298.221ZM317.17 193.112C316.591 193.112 316.036 193.037 315.504 192.888C314.981 192.729 314.524 192.477 314.132 192.132C313.74 191.777 313.46 191.306 313.292 190.718H314.188C314.365 191.129 314.612 191.455 314.93 191.698C315.247 191.941 315.602 192.113 315.994 192.216C316.386 192.319 316.778 192.37 317.17 192.37C317.608 192.37 318.024 192.305 318.416 192.174C318.808 192.043 319.13 191.838 319.382 191.558C319.634 191.278 319.76 190.919 319.76 190.48C319.76 190.116 319.685 189.827 319.536 189.612C319.396 189.388 319.204 189.211 318.962 189.08C318.719 188.94 318.439 188.823 318.122 188.73C317.87 188.655 317.608 188.59 317.338 188.534C317.076 188.469 316.82 188.403 316.568 188.338C316.316 188.263 316.078 188.184 315.854 188.1C315.574 188.016 315.298 187.913 315.028 187.792C314.757 187.671 314.514 187.517 314.3 187.33C314.085 187.143 313.912 186.915 313.782 186.644C313.66 186.373 313.6 186.047 313.6 185.664C313.6 185.272 313.66 184.927 313.782 184.628C313.903 184.329 314.076 184.077 314.3 183.872C314.524 183.657 314.78 183.489 315.07 183.368C315.359 183.237 315.667 183.144 315.994 183.088C316.33 183.023 316.67 182.99 317.016 182.99C317.557 182.99 318.061 183.069 318.528 183.228C318.994 183.377 319.391 183.625 319.718 183.97C320.044 184.306 320.245 184.759 320.32 185.328H319.466C319.382 184.936 319.214 184.623 318.962 184.39C318.71 184.157 318.411 183.989 318.066 183.886C317.73 183.783 317.38 183.732 317.016 183.732C316.726 183.732 316.432 183.76 316.133 183.816C315.835 183.872 315.56 183.97 315.308 184.11C315.065 184.25 314.864 184.437 314.706 184.67C314.556 184.903 314.482 185.202 314.482 185.566C314.482 185.911 314.552 186.201 314.692 186.434C314.841 186.667 315.037 186.854 315.28 186.994C315.522 187.134 315.788 187.251 316.078 187.344C316.498 187.475 316.932 187.591 317.38 187.694C317.828 187.787 318.252 187.904 318.654 188.044C318.934 188.128 319.19 188.24 319.424 188.38C319.666 188.511 319.876 188.669 320.054 188.856C320.231 189.043 320.371 189.257 320.474 189.5C320.576 189.733 320.628 189.999 320.628 190.298C320.628 190.811 320.53 191.25 320.334 191.614C320.147 191.969 319.89 192.258 319.564 192.482C319.237 192.706 318.868 192.869 318.458 192.972C318.047 193.065 317.618 193.112 317.17 193.112Z" fill="white"/>
<path d="M65.7357 72.7306C74.9108 68.1792 85.6354 66.1325 95.8289 68.2232C96.2046 68.2957 96.5802 68.3681 96.9673 68.4427C103.381 69.7755 109.258 72.1935 114.816 75.7162C114.848 76.9636 114.574 77.9067 114.145 79.0678C113.947 79.6051 113.947 79.6051 113.745 80.1534C113.606 80.5256 113.466 80.8977 113.322 81.2812C113.188 81.6466 113.054 82.0121 112.916 82.3887C112.11 84.5635 111.233 86.6863 110.271 88.7939C110.063 89.2704 109.855 89.7472 109.648 90.2243C109.452 90.6656 109.255 91.1067 109.058 91.5478C108.96 91.7765 108.862 92.0052 108.761 92.2409C108.466 92.8956 108.466 92.8956 107.895 93.9124C106.49 94.056 106.096 93.5589 104.956 92.7289C98.7285 88.3362 91.2938 86.2458 83.7267 87.312C76.3072 88.7318 69.5571 92.0011 64.8894 98.0953C64.6806 98.3522 64.4717 98.6091 64.2566 98.8738C59.3536 105.106 57.8885 112.618 58.4663 120.414C59.4476 128.129 63.6218 135.509 69.621 140.38C69.8414 140.538 70.0618 140.696 70.2888 140.858C70.7947 141.267 70.7947 141.267 71.21 142.178C68.3435 144.922 65.2897 147.447 62.2538 149.997C61.8798 150.311 61.8798 150.311 61.4983 150.632C61.2609 150.831 61.0236 151.03 60.7791 151.234C60.4621 151.5 60.4621 151.5 60.1387 151.772C58.8383 152.822 57.5917 153.556 56.0518 154.221C47.609 148.126 41.6056 136.404 39.624 126.317C38.1827 117.86 38.7051 109.283 41.2873 101.143C41.3996 100.781 41.5118 100.419 41.6275 100.045C44.5286 91.4369 50.1808 83.6956 57.2302 78.1034C57.536 77.8586 57.8419 77.6138 58.157 77.3615C60.549 75.5088 63.0383 74.0829 65.7357 72.7306Z" fill="white"/>
<path d="M126.305 86.6254C129.105 89.1947 130.641 92.6628 132.175 96.0817C132.325 96.4143 132.325 96.4143 132.478 96.7538C136.072 104.763 137.667 113.015 136.894 121.793C136.873 122.051 136.851 122.308 136.828 122.573C136.54 125.76 136.028 128.696 134.978 131.717C134.61 132.741 134.61 132.741 134.372 133.876C134.29 134.179 134.209 134.483 134.125 134.795C133.928 134.885 133.73 134.975 133.526 135.068C133.617 135.269 133.708 135.469 133.802 135.676C133.291 136.93 132.661 138.124 132.045 139.328C131.774 139.864 131.514 140.406 131.255 140.948C127.727 148.026 121.984 153.926 115.506 158.32C115.026 158.651 115.026 158.651 114.536 158.989C104.085 165.891 90.8902 168.185 78.6149 165.588C77.23 165.282 75.8701 164.924 74.5082 164.524C74.2963 164.462 74.0844 164.399 73.866 164.335C70.4251 163.304 67.2034 162.007 64.1493 160.071C64.0579 159.87 63.9666 159.67 63.8724 159.463C64.2808 159.178 64.2808 159.178 64.6974 158.887C70.858 154.671 70.858 154.671 76.5792 149.891C76.7648 149.716 76.9504 149.542 77.1416 149.362C77.6192 148.909 78.0943 148.454 78.5692 147.998C80.25 146.417 80.25 146.417 81.2917 146.024C82.0887 146.071 82.7615 146.267 83.5269 146.502C87.5974 147.533 91.7742 146.948 95.7805 146.027C96.1791 145.951 96.1791 145.951 96.5858 145.872C102.127 144.378 107.439 140.819 110.869 136.218C111.081 135.951 111.293 135.684 111.511 135.409C116.34 129.189 118.465 121.28 117.491 113.388C117.211 111.922 116.816 110.493 116.388 109.063C115.485 105.839 115.485 105.839 116.022 104.595C116.211 104.339 116.401 104.084 116.596 103.821C116.812 103.512 117.027 103.202 117.25 102.883C117.43 102.624 117.43 102.624 117.614 102.361C118.362 101.241 119.026 100.069 119.697 98.9004C119.843 98.6453 119.989 98.3901 120.14 98.1273C122.091 94.6967 123.913 91.2105 125.393 87.5414C125.705 86.8987 125.705 86.8987 126.305 86.6254Z" fill="white"/>
<path d="M142.873 0.562016C143.75 0.896395 143.75 0.896395 144.336 1.9361C145.352 4.32891 145.27 6.96988 145.118 9.51425C145.102 9.79098 145.085 10.0677 145.069 10.3528C144.88 13.1227 144.391 15.7842 143.795 18.4866C143.736 18.7593 143.678 19.0321 143.617 19.3132C143.175 21.355 142.717 23.3924 142.249 25.4281C142.164 25.8018 142.164 25.8018 142.077 26.1831C140.312 33.8841 138.288 41.529 135.817 49.0246C135.578 49.757 135.343 50.4908 135.109 51.2252C134.076 54.4517 132.961 57.6434 131.8 60.8245C131.666 61.1924 131.533 61.5603 131.395 61.9393C130.706 63.8105 129.974 65.6429 129.15 67.4562C128.515 68.8801 127.95 70.3333 127.376 71.7831C126.339 74.383 125.276 76.9656 124.16 79.5313C123.874 80.1962 123.589 80.8613 123.304 81.5267C123.158 81.8654 123.013 82.2041 122.863 82.553C122.46 83.5072 122.069 84.4661 121.681 85.4266C120.586 88.1128 119.324 90.6821 117.977 93.246C117.685 93.8098 117.402 94.379 117.121 94.9489C112.962 103.269 107.585 110.979 102.019 118.378C101.528 119.031 101.039 119.685 100.552 120.341C98.6358 122.908 96.6393 125.378 94.5354 127.791C94.3792 127.971 94.2231 128.151 94.0622 128.336C90.508 132.416 86.7893 136.32 82.9533 140.131C82.7879 140.295 82.6225 140.459 82.452 140.629C73.9141 149.093 64.7176 157.247 53.7573 162.352C53.4112 162.52 53.0652 162.689 52.7086 162.862C50.1736 164.04 48.0603 164.614 45.3232 163.764C44.2189 162.879 44.0813 162.268 43.8698 160.872C43.9032 158.458 44.673 156.196 45.4157 153.93C45.9124 155.02 45.7781 155.268 45.469 156.382C45.1236 157.907 45.0526 158.917 45.8078 160.356C46.8247 160.875 47.6028 161.175 48.7379 161.222C49.3475 160.98 49.9493 160.718 50.5465 160.447C51.0919 160.199 51.0919 160.199 51.6483 159.946C52.0298 159.771 52.4112 159.596 52.8042 159.415C53.1775 159.247 53.5507 159.078 53.9353 158.904C56.6605 157.659 59.2781 156.372 61.6335 154.499C63.5726 152.965 63.5726 152.965 64.5417 152.233C67.4771 150.007 70.2064 147.602 72.894 145.08C73.2641 144.735 73.2641 144.735 73.6417 144.383C80.081 138.36 86.0634 131.934 91.6977 125.14C91.9548 124.83 92.2119 124.521 92.4768 124.202C96.6386 119.165 100.431 113.96 104.041 108.51C104.201 108.269 104.361 108.028 104.526 107.78C108.765 101.364 112.38 94.5653 115.485 87.5194C115.728 86.9732 115.728 86.9732 115.976 86.4159C117.255 83.4447 118.368 80.4088 119.487 77.3723C119.568 77.1528 119.649 76.9332 119.733 76.7071C120.577 74.4193 121.389 72.133 122.05 69.7821C122.407 68.5343 122.827 67.3086 123.238 66.0783C123.938 63.9485 124.571 61.8181 125.106 59.6375C125.332 58.7213 125.566 57.8099 125.808 56.8985C126.849 52.9546 127.644 48.9976 128.337 44.9747C126.816 46.0194 125.295 47.0646 123.775 48.1102C123.258 48.465 122.742 48.8198 122.226 49.1745C121.479 49.6872 120.733 50.2004 119.987 50.7136C119.76 50.8695 119.533 51.0254 119.298 51.186C117.914 52.1389 116.55 53.1154 115.191 54.105C114.505 54.5996 113.808 55.0717 113.099 55.5314C112.856 55.6894 112.613 55.8475 112.362 56.0104C112.119 56.1676 111.875 56.3249 111.624 56.487C111.37 56.6519 111.116 56.8168 110.855 56.9867C110.238 57.387 109.62 57.7867 109.003 58.1858C108.688 54.5606 109.155 50.7951 111.432 47.9145C112.433 46.7592 113.481 45.658 114.545 44.5624C114.992 44.0828 115.438 43.6019 115.883 43.12C116.768 42.1643 117.66 41.2151 118.558 40.2714C120.515 38.2109 122.401 36.0863 124.293 33.9655C125.489 32.6306 126.692 31.319 127.961 30.0544C131.037 26.9142 131.945 24.393 132.43 20.0222C133.164 14.4263 135.431 7.98082 138.789 3.52318C138.947 3.2901 139.104 3.05702 139.267 2.81688C140.276 1.39842 141.09 0.83352 142.873 0.562016Z" fill="#006AFF"/>
<path d="M142.734 28.8765C143.555 29.5476 143.504 30.1216 143.681 31.162C143.749 31.5438 143.817 31.9256 143.886 32.319C143.958 32.7327 144.03 33.1463 144.103 33.5725C144.771 37.3102 145.569 40.9797 146.548 44.6524C146.634 44.9852 146.72 45.3181 146.809 45.6611C146.926 46.0949 146.926 46.0949 147.045 46.5376C147.318 48.1994 146.943 49.5864 146.349 51.1233C146.237 51.4176 146.125 51.7119 146.009 52.0151C145.902 52.2897 145.796 52.5643 145.686 52.8472C145.564 53.2191 145.564 53.2191 145.44 53.5986C145.202 54.1686 145.202 54.1686 144.602 54.4419C143.868 53.3704 143.139 52.296 142.41 51.2211C142.204 50.9197 141.997 50.6184 141.785 50.3079C138.898 46.0382 138.898 46.0382 139.075 44.2045C139.185 43.8536 139.295 43.5027 139.408 43.1412C139.584 42.543 139.584 42.543 139.764 41.9326C139.955 41.3194 139.955 41.3194 140.149 40.6938C141.271 36.793 142.05 32.8798 142.734 28.8765Z" fill="#006AFF"/>
<path d="M122.684 60.3914C122.927 60.4015 123.171 60.4115 123.422 60.4219C123.279 60.8728 123.279 60.8728 123.134 61.3329C122.455 63.4864 121.785 65.6408 121.166 67.8133C121.096 68.0457 121.025 68.2782 120.953 68.5177C120.895 68.7499 120.837 68.9821 120.777 69.2213C120.129 70.5197 118.46 70.8776 117.169 71.3422C116.177 71.6051 115.207 71.7926 114.193 71.9644C114.597 68.8135 115.424 67.1267 117.87 65.1296C119.475 63.796 120.921 62.474 122.236 60.8427C122.384 60.6937 122.532 60.5448 122.684 60.3914Z" fill="#006AFF"/>
<path d="M45.4156 153.93C45.9086 155.012 45.7921 155.327 45.5222 156.45C45.2995 157.396 45.1041 158.313 44.954 159.277C44.7028 159.512 44.4515 159.748 44.1927 159.99C44.0196 158.484 44.2841 157.379 44.7522 155.952C44.8751 155.572 44.998 155.192 45.1246 154.801C45.2687 154.37 45.2687 154.37 45.4156 153.93Z" fill="#0047AB"/>
<path d="M142.733 28.8765C143.468 29.4764 143.448 29.8086 143.6 30.729C143.642 30.9757 143.684 31.2224 143.727 31.4766C143.772 31.7612 143.772 31.7612 143.818 32.0515C143.528 31.9412 143.239 31.8308 142.941 31.7171C142.735 32.053 142.53 32.3888 142.318 32.7347C142.318 31.4217 142.519 30.1675 142.733 28.8765Z" fill="#0047AB"/>
<path d="M122.684 60.3912C122.927 60.4013 123.171 60.4114 123.422 60.4217C123.155 61.1485 122.889 61.8753 122.614 62.6241C122.18 62.4586 121.746 62.2931 121.299 62.1226C121.741 61.5297 122.204 60.9527 122.684 60.3912Z" fill="#0047AB"/>
<path d="M151.202 159.86V89.1605H168.302L187.902 124.86L207.302 89.1605H223.902V159.86H211.402V104.96L190.302 143.16H185.002L163.702 104.96V159.86H151.202ZM239.679 159.86V89.1605H253.079L287.179 140.66V89.1605H299.679V159.86H286.579L252.179 108.66V159.86H239.679ZM315.46 159.86V89.1605H327.96V159.86H315.46ZM343.78 159.86V89.1605H371.68C375.28 89.1605 378.68 89.5271 381.88 90.2605C385.08 90.9271 387.913 92.1271 390.38 93.8605C392.847 95.5271 394.78 97.8271 396.18 100.76C397.58 103.694 398.28 107.327 398.28 111.66C398.28 115.26 397.647 118.427 396.38 121.16C395.113 123.894 393.347 126.194 391.08 128.06C388.88 129.927 386.247 131.36 383.18 132.36L398.68 159.86H384.68L370.78 134.36H356.28V159.86H343.78ZM356.28 123.26H369.98C372.247 123.26 374.313 123.094 376.18 122.76C378.113 122.36 379.78 121.727 381.18 120.86C382.647 119.994 383.747 118.827 384.48 117.36C385.28 115.827 385.713 113.894 385.78 111.56C385.78 108.76 385.18 106.56 383.98 104.96C382.847 103.36 381.18 102.227 378.98 101.56C376.847 100.894 374.28 100.56 371.28 100.56H356.28V123.26ZM404.151 159.86L431.251 89.1605H446.151L473.151 159.86H459.651L454.951 146.76H422.351L417.551 159.86H404.151ZM426.351 135.46H450.851L438.651 101.76L426.351 135.46Z" fill="white"/>
</g>
<defs>
<filter id="filter0_d_262_25" x="34.8353" y="0.562012" width="442.316" height="200.55" filterUnits="userSpaceOnUse" color-interpolation-filters="sRGB">
<feFlood flood-opacity="0" result="BackgroundImageFix"/>
<feColorMatrix in="SourceAlpha" type="matrix" values="0 0 0 0 0 0 0 0 0 0 0 0 0 0 0 0 0 0 127 0" result="hardAlpha"/>
<feOffset dy="4"/>
<feGaussianBlur stdDeviation="2"/>
<feComposite in2="hardAlpha" operator="out"/>
<feColorMatrix type="matrix" values="0 0 0 0 0 0 0 0 0 0 0 0 0 0 0 0 0 0 0.25 0"/>
<feBlend mode="normal" in2="BackgroundImageFix" result="effect1_dropShadow_262_25"/>
<feBlend mode="normal" in="SourceGraphic" in2="effect1_dropShadow_262_25" result="shape"/>
</filter>
</defs>
</svg>
