<svg width="602" height="191" viewBox="0 0 602 191" fill="none" xmlns="http://www.w3.org/2000/svg">
<g filter="url(#filter0_d_410_2)">
<path d="M65.7358 72.7306C74.9109 68.1792 85.6355 66.1325 95.829 68.2232C96.2047 68.2957 96.5804 68.3681 96.9674 68.4427C103.381 69.7755 109.258 72.1935 114.817 75.7162C114.848 76.9636 114.574 77.9067 114.145 79.0678C113.947 79.6051 113.947 79.6051 113.745 80.1534C113.606 80.5256 113.466 80.8977 113.323 81.2812C113.188 81.6466 113.054 82.0121 112.916 82.3887C112.11 84.5635 111.233 86.6863 110.271 88.7939C110.063 89.2704 109.855 89.7472 109.648 90.2243C109.452 90.6656 109.255 91.1067 109.058 91.5478C108.96 91.7765 108.862 92.0052 108.761 92.2409C108.466 92.8956 108.466 92.8956 107.895 93.9124C106.49 94.056 106.096 93.5589 104.956 92.7289C98.7287 88.3362 91.2939 86.2458 83.7268 87.312C76.3073 88.7318 69.5572 92.0011 64.8896 98.0953C64.6807 98.3522 64.4719 98.6091 64.2567 98.8738C59.3537 105.106 57.8886 112.618 58.4665 120.414C59.4477 128.129 63.622 135.509 69.6211 140.38C69.8415 140.538 70.0619 140.696 70.2889 140.858C70.7949 141.267 70.7949 141.267 71.2101 142.178C68.3436 144.922 65.2898 147.447 62.2539 149.997C61.8799 150.311 61.8799 150.311 61.4984 150.632C61.2611 150.831 61.0237 151.03 60.7792 151.234C60.4622 151.5 60.4622 151.5 60.1389 151.772C58.8384 152.822 57.5918 153.556 56.0519 154.221C47.6092 148.126 41.6057 136.404 39.6241 126.317C38.1828 117.86 38.7052 109.283 41.2874 101.143C41.3997 100.781 41.5119 100.419 41.6276 100.045C44.5287 91.4369 50.1809 83.6956 57.2303 78.1034C57.5362 77.8586 57.842 77.6138 58.1571 77.3615C60.5491 75.5088 63.0385 74.0829 65.7358 72.7306Z" fill="#0047AB"/>
<path d="M126.305 86.6254C129.106 89.1947 130.641 92.6628 132.175 96.0816C132.326 96.4143 132.326 96.4143 132.479 96.7537C136.072 104.763 137.667 113.015 136.894 121.793C136.873 122.05 136.851 122.308 136.828 122.573C136.54 125.76 136.028 128.696 134.978 131.717C134.61 132.74 134.61 132.74 134.372 133.876C134.291 134.179 134.209 134.483 134.126 134.795C133.928 134.885 133.73 134.975 133.526 135.068C133.617 135.269 133.708 135.469 133.803 135.676C133.291 136.93 132.661 138.124 132.046 139.328C131.774 139.864 131.514 140.406 131.256 140.948C127.727 148.026 121.984 153.926 115.506 158.32C115.026 158.651 115.026 158.651 114.536 158.989C104.085 165.891 90.8904 168.185 78.6151 165.588C77.2301 165.282 75.8702 164.924 74.5084 164.524C74.2964 164.462 74.0845 164.399 73.8662 164.335C70.4253 163.304 67.2035 162.007 64.1494 160.071C64.058 159.87 63.9667 159.67 63.8726 159.463C64.2809 159.178 64.2809 159.178 64.6975 158.887C70.8582 154.671 70.8582 154.671 76.5794 149.891C76.7649 149.716 76.9505 149.542 77.1417 149.362C77.6193 148.909 78.0944 148.454 78.5693 147.998C80.2501 146.417 80.2501 146.417 81.2918 146.024C82.0888 146.071 82.7616 146.267 83.527 146.502C87.5976 147.533 91.7743 146.948 95.7806 146.027C96.1792 145.951 96.1792 145.951 96.5859 145.872C102.128 144.378 107.439 140.819 110.87 136.218C111.081 135.951 111.293 135.684 111.511 135.409C116.34 129.189 118.465 121.28 117.492 113.388C117.211 111.922 116.816 110.493 116.388 109.063C115.485 105.839 115.485 105.839 116.022 104.595C116.212 104.339 116.401 104.084 116.596 103.821C116.812 103.512 117.028 103.202 117.25 102.883C117.43 102.624 117.43 102.624 117.614 102.36C118.362 101.241 119.026 100.069 119.697 98.9004C119.843 98.6453 119.989 98.3901 120.14 98.1272C122.092 94.6967 123.913 91.2105 125.393 87.5414C125.706 86.8987 125.706 86.8987 126.305 86.6254Z" fill="#0047AB"/>
<path d="M142.873 0.561971C143.75 0.896349 143.75 0.896349 144.336 1.93605C145.352 4.32887 145.27 6.96984 145.118 9.5142C145.102 9.79093 145.085 10.0677 145.069 10.3528C144.88 13.1226 144.391 15.7842 143.795 18.4865C143.736 18.7593 143.678 19.0321 143.617 19.3131C143.175 21.355 142.717 23.3923 142.249 25.4281C142.164 25.8018 142.164 25.8018 142.077 26.1831C140.312 33.8841 138.288 41.5289 135.817 49.0246C135.578 49.7569 135.343 50.4908 135.109 51.2251C134.076 54.4517 132.961 57.6434 131.8 60.8244C131.666 61.1923 131.533 61.5602 131.395 61.9393C130.706 63.8104 129.974 65.6429 129.15 67.4561C128.515 68.8801 127.95 70.3332 127.376 71.7831C126.339 74.3829 125.276 76.9656 124.16 79.5312C123.874 80.1961 123.589 80.8613 123.304 81.5267C123.158 81.8653 123.013 82.204 122.863 82.553C122.46 83.5072 122.069 84.4661 121.681 85.4266C120.586 88.1127 119.324 90.682 117.977 93.246C117.685 93.8097 117.402 94.379 117.121 94.9488C112.962 103.269 107.585 110.979 102.019 118.378C101.528 119.031 101.039 119.685 100.552 120.341C98.6358 122.908 96.6393 125.377 94.5354 127.791C94.3792 127.971 94.2231 128.151 94.0622 128.336C90.508 132.416 86.7893 136.32 82.9533 140.131C82.7879 140.295 82.6225 140.459 82.452 140.629C73.9141 149.093 64.7176 157.247 53.7573 162.352C53.4112 162.52 53.0652 162.689 52.7086 162.862C50.1736 164.04 48.0603 164.614 45.3232 163.764C44.2189 162.879 44.0813 162.268 43.8698 160.872C43.9032 158.458 44.673 156.196 45.4157 153.93C45.9124 155.02 45.7781 155.268 45.469 156.382C45.1236 157.907 45.0526 158.917 45.8078 160.356C46.8247 160.875 47.6028 161.175 48.7379 161.222C49.3475 160.98 49.9493 160.718 50.5465 160.447C51.0919 160.199 51.0919 160.199 51.6483 159.946C52.0298 159.771 52.4112 159.596 52.8042 159.415C53.1775 159.247 53.5507 159.078 53.9353 158.904C56.6605 157.659 59.2781 156.372 61.6335 154.499C63.5726 152.965 63.5726 152.965 64.5417 152.233C67.4771 150.007 70.2064 147.602 72.894 145.08C73.2641 144.735 73.2641 144.735 73.6417 144.383C80.081 138.359 86.0634 131.934 91.6977 125.14C91.9548 124.83 92.2119 124.521 92.4768 124.202C96.6386 119.165 100.431 113.96 104.041 108.51C104.201 108.269 104.361 108.028 104.526 107.78C108.765 101.364 112.38 94.5652 115.485 87.5193C115.728 86.9731 115.728 86.9731 115.976 86.4159C117.255 83.4446 118.368 80.4088 119.487 77.3722C119.568 77.1527 119.649 76.9332 119.733 76.707C120.577 74.4192 121.389 72.133 122.05 69.7821C122.407 68.5343 122.827 67.3085 123.238 66.0783C123.938 63.9485 124.571 61.818 125.106 59.6374C125.332 58.7213 125.566 57.8099 125.808 56.8985C126.849 52.9546 127.644 48.9976 128.337 44.9746C126.816 46.0194 125.295 47.0645 123.775 48.1101C123.258 48.465 122.742 48.8198 122.226 49.1744C121.479 49.6871 120.733 50.2003 119.987 50.7136C119.76 50.8695 119.533 51.0254 119.298 51.186C117.914 52.1389 116.55 53.1153 115.191 54.105C114.505 54.5996 113.808 55.0716 113.099 55.5313C112.856 55.6894 112.613 55.8475 112.362 56.0103C112.119 56.1676 111.875 56.3249 111.624 56.4869C111.37 56.6518 111.116 56.8167 110.855 56.9867C110.238 57.387 109.62 57.7867 109.003 58.1857C108.688 54.5606 109.155 50.795 111.432 47.9144C112.433 46.7591 113.481 45.658 114.545 44.5624C114.992 44.0827 115.438 43.6019 115.883 43.1199C116.768 42.1643 117.66 41.2151 118.558 40.2714C120.515 38.2109 122.401 36.0863 124.293 33.9654C125.489 32.6306 126.692 31.319 127.961 30.0544C131.037 26.9142 131.945 24.393 132.43 20.0221C133.164 14.4262 135.431 7.98077 138.789 3.52313C138.947 3.29005 139.104 3.05698 139.267 2.81684C140.276 1.39838 141.09 0.833475 142.873 0.561971Z" fill="#006AFF"/>
<path d="M142.734 28.8765C143.555 29.5476 143.504 30.1216 143.681 31.162C143.749 31.5438 143.817 31.9256 143.886 32.319C143.958 32.7326 144.03 33.1462 144.103 33.5724C144.771 37.3102 145.569 40.9797 146.548 44.6523C146.634 44.9852 146.72 45.3181 146.809 45.661C146.926 46.0949 146.926 46.0949 147.045 46.5375C147.318 48.1994 146.943 49.5863 146.349 51.1232C146.237 51.4175 146.125 51.7118 146.009 52.0151C145.902 52.2897 145.796 52.5642 145.686 52.8471C145.564 53.2191 145.564 53.2191 145.44 53.5985C145.202 54.1686 145.202 54.1686 144.602 54.4419C143.868 53.3703 143.139 52.296 142.41 51.2211C142.204 50.9197 141.997 50.6183 141.785 50.3079C138.898 46.0381 138.898 46.0381 139.075 44.2045C139.185 43.8536 139.295 43.5027 139.408 43.1411C139.584 42.5429 139.584 42.5429 139.764 41.9326C139.955 41.3194 139.955 41.3194 140.149 40.6938C141.271 36.793 142.05 32.8798 142.734 28.8765Z" fill="#006AFF"/>
<path d="M122.684 60.3913C122.927 60.4014 123.171 60.4115 123.422 60.4219C123.279 60.8728 123.279 60.8728 123.134 61.3328C122.455 63.4864 121.785 65.6408 121.165 67.8132C121.095 68.0457 121.025 68.2782 120.953 68.5177C120.895 68.7499 120.837 68.9821 120.777 69.2213C120.129 70.5196 118.46 70.8775 117.169 71.3422C116.177 71.6051 115.207 71.7926 114.193 71.9643C114.597 68.8134 115.424 67.1266 117.87 65.1296C119.475 63.796 120.921 62.474 122.236 60.8426C122.384 60.6937 122.531 60.5448 122.684 60.3913Z" fill="#006AFF"/>
<path d="M45.4155 153.93C45.9085 155.012 45.792 155.327 45.5221 156.45C45.2993 157.396 45.104 158.313 44.9539 159.277C44.7027 159.512 44.4514 159.748 44.1925 159.99C44.0194 158.484 44.284 157.379 44.7521 155.952C44.875 155.572 44.9979 155.192 45.1245 154.801C45.2685 154.37 45.2685 154.37 45.4155 153.93Z" fill="#0047AB"/>
<path d="M142.734 28.8765C143.468 29.4764 143.449 29.8086 143.6 30.7289C143.642 30.9757 143.684 31.2224 143.727 31.4765C143.772 31.7611 143.772 31.7611 143.818 32.0515C143.529 31.9411 143.239 31.8308 142.941 31.7171C142.736 32.0529 142.53 32.3887 142.318 32.7347C142.318 31.4217 142.519 30.1675 142.734 28.8765Z" fill="#0047AB"/>
<path d="M122.683 60.3911C122.927 60.4012 123.171 60.4113 123.422 60.4217C123.155 61.1485 122.889 61.8753 122.614 62.6241C122.18 62.4586 121.746 62.293 121.299 62.1225C121.741 61.5296 122.203 60.9527 122.683 60.3911Z" fill="#0047AB"/>
<path d="M150.9 160V89.3H168L187.6 125L207 89.3H223.6V160H211.1V105.1L190 143.3H184.7L163.4 105.1V160H150.9ZM239.377 160V89.3H252.777L286.877 140.8V89.3H299.377V160H286.277L251.877 108.8V160H239.377ZM315.158 160V89.3H327.658V160H315.158ZM343.478 160V89.3H371.378C374.978 89.3 378.378 89.6667 381.578 90.4C384.778 91.0667 387.611 92.2667 390.078 94C392.545 95.6667 394.478 97.9667 395.878 100.9C397.278 103.833 397.978 107.467 397.978 111.8C397.978 115.4 397.345 118.567 396.078 121.3C394.811 124.033 393.045 126.333 390.778 128.2C388.578 130.067 385.945 131.5 382.878 132.5L398.378 160H384.378L370.478 134.5H355.978V160H343.478ZM355.978 123.4H369.678C371.945 123.4 374.011 123.233 375.878 122.9C377.811 122.5 379.478 121.867 380.878 121C382.345 120.133 383.445 118.967 384.178 117.5C384.978 115.967 385.411 114.033 385.478 111.7C385.478 108.9 384.878 106.7 383.678 105.1C382.545 103.5 380.878 102.367 378.678 101.7C376.545 101.033 373.978 100.7 370.978 100.7H355.978V123.4ZM403.849 160L430.949 89.3H445.849L472.849 160H459.349L454.649 146.9H422.049L417.249 160H403.849ZM426.049 135.6H450.549L438.349 101.9L426.049 135.6Z" fill="#0047AB"/>
</g>
<path d="M491.694 160L495.502 150.102H496.58L500.416 160H499.478L498.624 157.774H493.458L492.618 160H491.694ZM493.738 157.032H498.344L496.048 150.942L493.738 157.032ZM508.891 160V150.102H509.717V160H508.891ZM519.268 160V150.102H522.908C523.431 150.102 523.907 150.158 524.336 150.27C524.765 150.373 525.129 150.545 525.428 150.788C525.736 151.021 525.969 151.329 526.128 151.712C526.296 152.095 526.38 152.566 526.38 153.126C526.38 153.639 526.282 154.087 526.086 154.47C525.899 154.853 525.629 155.17 525.274 155.422C524.929 155.674 524.513 155.856 524.028 155.968L526.184 160H525.26L523.174 156.108H520.094V160H519.268ZM520.094 155.366H522.516C522.908 155.366 523.281 155.338 523.636 155.282C524 155.217 524.322 155.1 524.602 154.932C524.882 154.764 525.101 154.531 525.26 154.232C525.428 153.933 525.512 153.551 525.512 153.084C525.521 152.505 525.409 152.057 525.176 151.74C524.943 151.413 524.621 151.185 524.21 151.054C523.799 150.923 523.319 150.858 522.768 150.858H520.094V155.366ZM535.456 160V150.102H536.282V159.244H541.938V160H535.456ZM550.44 160V150.102H551.266V160H550.44ZM560.817 160V150.102H561.937L567.831 158.936V150.102H568.671V160H567.579L561.643 151.166V160H560.817ZM578.221 160V150.102H584.703V150.858H579.047V154.708H584.129V155.478H579.047V159.244H584.703V160H578.221ZM597.17 160.112C596.591 160.112 596.036 160.037 595.504 159.888C594.981 159.729 594.524 159.477 594.132 159.132C593.74 158.777 593.46 158.306 593.292 157.718H594.188C594.365 158.129 594.612 158.455 594.93 158.698C595.247 158.941 595.602 159.113 595.994 159.216C596.386 159.319 596.778 159.37 597.17 159.37C597.608 159.37 598.024 159.305 598.416 159.174C598.808 159.043 599.13 158.838 599.382 158.558C599.634 158.278 599.76 157.919 599.76 157.48C599.76 157.116 599.685 156.827 599.536 156.612C599.396 156.388 599.204 156.211 598.962 156.08C598.719 155.94 598.439 155.823 598.122 155.73C597.87 155.655 597.608 155.59 597.338 155.534C597.076 155.469 596.82 155.403 596.568 155.338C596.316 155.263 596.078 155.184 595.854 155.1C595.574 155.016 595.298 154.913 595.028 154.792C594.757 154.671 594.514 154.517 594.3 154.33C594.085 154.143 593.912 153.915 593.782 153.644C593.66 153.373 593.6 153.047 593.6 152.664C593.6 152.272 593.66 151.927 593.782 151.628C593.903 151.329 594.076 151.077 594.3 150.872C594.524 150.657 594.78 150.489 595.07 150.368C595.359 150.237 595.667 150.144 595.994 150.088C596.33 150.023 596.67 149.99 597.016 149.99C597.557 149.99 598.061 150.069 598.528 150.228C598.994 150.377 599.391 150.625 599.718 150.97C600.044 151.306 600.245 151.759 600.32 152.328H599.466C599.382 151.936 599.214 151.623 598.962 151.39C598.71 151.157 598.411 150.989 598.066 150.886C597.73 150.783 597.38 150.732 597.016 150.732C596.726 150.732 596.432 150.76 596.133 150.816C595.835 150.872 595.56 150.97 595.308 151.11C595.065 151.25 594.864 151.437 594.706 151.67C594.556 151.903 594.482 152.202 594.482 152.566C594.482 152.911 594.552 153.201 594.692 153.434C594.841 153.667 595.037 153.854 595.28 153.994C595.522 154.134 595.788 154.251 596.078 154.344C596.498 154.475 596.932 154.591 597.38 154.694C597.828 154.787 598.252 154.904 598.654 155.044C598.934 155.128 599.19 155.24 599.424 155.38C599.666 155.511 599.876 155.669 600.054 155.856C600.231 156.043 600.371 156.257 600.474 156.5C600.576 156.733 600.628 156.999 600.628 157.298C600.628 157.811 600.53 158.25 600.334 158.614C600.147 158.969 599.89 159.258 599.564 159.482C599.237 159.706 598.868 159.869 598.458 159.972C598.047 160.065 597.618 160.112 597.17 160.112Z" fill="#0047AB"/>
<defs>
<filter id="filter0_d_410_2" x="34.8354" y="0.561974" width="442.014" height="174.066" filterUnits="userSpaceOnUse" color-interpolation-filters="sRGB">
<feFlood flood-opacity="0" result="BackgroundImageFix"/>
<feColorMatrix in="SourceAlpha" type="matrix" values="0 0 0 0 0 0 0 0 0 0 0 0 0 0 0 0 0 0 127 0" result="hardAlpha"/>
<feOffset dy="4"/>
<feGaussianBlur stdDeviation="2"/>
<feComposite in2="hardAlpha" operator="out"/>
<feColorMatrix type="matrix" values="0 0 0 0 0 0 0 0 0 0 0 0 0 0 0 0 0 0 0.25 0"/>
<feBlend mode="normal" in2="BackgroundImageFix" result="effect1_dropShadow_410_2"/>
<feBlend mode="normal" in="SourceGraphic" in2="effect1_dropShadow_410_2" result="shape"/>
</filter>
</defs>
</svg>
