<svg width="381" height="373" viewBox="0 0 381 373" fill="none" xmlns="http://www.w3.org/2000/svg">
<rect x="25" y="18.4622" width="330" height="335" fill="black"/>
<path d="M159.307 144.459C175.22 143.627 191.799 147.328 205.064 156.61C205.555 156.945 206.047 157.281 206.554 157.626C214.889 163.491 221.788 170.574 227.55 179.037C226.825 180.838 225.851 182.015 224.52 183.408C223.906 184.053 223.906 184.053 223.279 184.712C222.85 185.157 222.421 185.602 221.979 186.061C221.562 186.5 221.144 186.939 220.714 187.391C218.22 189.999 215.657 192.489 212.982 194.904C212.39 195.456 211.799 196.009 211.208 196.562C210.655 197.071 210.102 197.579 209.549 198.088C209.267 198.354 208.986 198.62 208.696 198.894C207.87 199.646 207.87 199.646 206.427 200.746C204.332 200.083 204.076 199.13 202.961 197.24C196.782 187.121 187.456 179.544 175.992 176.393C164.52 173.838 152.862 174.337 142.432 180.157C141.976 180.395 141.519 180.632 141.048 180.878C130.197 186.749 123.465 196.571 119.475 208.06C116.112 219.683 117.514 232.8 123.072 243.461C123.289 243.822 123.507 244.184 123.73 244.556C124.2 245.452 124.2 245.452 124.23 247.011C118.442 249.158 112.522 250.877 106.612 252.643C105.884 252.861 105.884 252.861 105.141 253.084C104.679 253.221 104.218 253.358 103.742 253.5C103.125 253.684 103.125 253.684 102.496 253.871C99.9901 254.568 97.7564 254.846 95.1469 254.844C86.8551 240.927 85.5223 220.48 88.923 204.851C92.0882 191.885 98.1317 179.96 106.847 169.931C107.231 169.483 107.615 169.035 108.01 168.574C117.47 158.073 130.323 150.51 143.843 146.878C144.431 146.717 145.019 146.557 145.625 146.391C150.185 145.223 154.62 144.724 159.307 144.459Z" fill="white"/>
<path d="M237.217 201.711C239.629 207.109 239.679 213.01 239.759 218.84C239.768 219.408 239.768 219.408 239.777 219.987C239.961 233.643 237.142 246.412 230.617 258.47C230.427 258.824 230.237 259.179 230.041 259.544C227.662 263.915 225.117 267.793 221.752 271.457C220.593 272.692 220.593 272.692 219.552 274.166C219.249 274.549 218.945 274.932 218.633 275.326C218.294 275.333 217.956 275.339 217.607 275.346C217.614 275.689 217.62 276.032 217.627 276.385C216.123 277.86 214.486 279.175 212.863 280.514C212.144 281.112 211.438 281.726 210.734 282.34C201.324 290.269 189.479 295.146 177.515 297.42C176.624 297.596 176.624 297.596 175.716 297.775C156.529 301.177 136.27 296.303 120.346 285.013C118.557 283.72 116.836 282.369 115.139 280.957C114.874 280.737 114.61 280.517 114.338 280.29C110.062 276.692 106.262 272.851 103.097 268.2C103.09 267.857 103.083 267.514 103.077 267.161C103.836 267.005 103.836 267.005 104.611 266.847C116.012 264.632 116.012 264.632 127.134 261.34C127.507 261.205 127.879 261.071 128.263 260.932C129.225 260.581 130.185 260.224 131.145 259.866C134.521 258.647 134.521 258.647 136.252 258.729C137.36 259.289 138.2 259.983 139.148 260.792C144.324 264.778 150.65 266.522 156.939 267.682C157.556 267.819 157.556 267.819 158.185 267.959C167.021 269.247 176.804 267.445 184.545 262.994C185.012 262.744 185.479 262.494 185.961 262.236C196.698 256.336 204.617 246.354 208.101 234.484C208.606 232.216 208.925 229.933 209.197 227.626C209.899 222.465 209.899 222.465 211.434 221.019C211.862 220.772 212.291 220.525 212.732 220.27C213.231 219.961 213.73 219.652 214.245 219.333C214.662 219.075 214.662 219.075 215.087 218.812C216.847 217.675 218.519 216.413 220.199 215.158C220.565 214.884 220.932 214.61 221.31 214.328C226.215 210.634 230.968 206.781 235.348 202.455C236.192 201.731 236.192 201.731 237.217 201.711Z" fill="white"/>
<path d="M314.032 89.0471C315.077 90.0661 315.077 90.0661 315.273 91.9133C315.245 95.9573 313.497 99.6782 311.708 103.217C311.514 103.602 311.32 103.988 311.12 104.384C309.14 108.223 306.798 111.722 304.278 115.213C304.025 115.566 303.773 115.919 303.512 116.283C301.621 118.926 299.707 121.552 297.783 124.17C297.43 124.651 297.43 124.651 297.07 125.142C289.794 135.049 282.182 144.715 274.024 153.893C273.229 154.791 272.441 155.694 271.653 156.598C268.185 160.567 264.622 164.436 260.999 168.262C260.581 168.704 260.163 169.147 259.732 169.603C257.593 171.85 255.416 174.014 253.119 176.095C251.333 177.736 249.629 179.462 247.913 181.178C244.827 184.25 241.714 187.282 238.535 190.256C237.716 191.029 236.898 191.802 236.08 192.576C235.663 192.97 235.246 193.364 234.817 193.77C233.651 194.883 232.502 196.011 231.353 197.143C228.131 200.302 224.742 203.192 221.236 206.022C220.47 206.646 219.715 207.284 218.961 207.924C207.883 217.237 195.443 224.926 182.924 232.053C181.82 232.682 180.718 233.315 179.617 233.95C175.296 236.433 170.92 238.725 166.424 240.873C166.09 241.033 165.756 241.193 165.412 241.358C157.817 244.989 150.095 248.267 142.264 251.339C141.926 251.472 141.589 251.604 141.241 251.741C123.821 258.555 105.652 264.518 86.8478 265.038C86.2497 265.065 85.6515 265.092 85.0353 265.119C80.6879 265.235 77.3156 264.749 73.9322 261.845C72.9018 259.899 73.0828 258.942 73.643 256.817C75.1817 253.391 77.6779 250.637 80.138 247.86C80.1739 249.723 79.8289 249.995 78.6995 251.395C77.2647 253.358 76.5395 254.756 76.7292 257.278C77.8605 258.647 78.7862 259.557 80.3781 260.325C81.3981 260.356 82.4192 260.353 83.4395 260.335C84.3714 260.318 84.3714 260.318 85.3221 260.3C85.975 260.286 86.628 260.271 87.3007 260.256C87.9378 260.246 88.575 260.236 89.2314 260.225C93.892 260.13 98.4249 259.909 102.945 258.689C106.662 257.696 106.662 257.696 108.497 257.25C114.064 255.884 119.447 254.135 124.842 252.195C125.584 251.93 125.584 251.93 126.341 251.66C139.256 247.036 151.768 241.555 164.01 235.334C164.568 235.051 165.126 234.768 165.702 234.476C174.756 229.853 183.386 224.763 191.908 219.21C192.285 218.965 192.662 218.72 193.05 218.468C203.067 211.924 212.428 204.448 221.214 196.305C221.898 195.675 221.898 195.675 222.596 195.032C226.257 191.579 229.723 187.932 233.195 184.286C233.447 184.023 233.698 183.76 233.958 183.488C236.576 180.743 239.147 177.979 241.544 175.031C242.825 173.47 244.181 171.979 245.527 170.476C247.843 167.867 250.063 165.216 252.174 162.432C253.062 161.263 253.959 160.106 254.868 158.955C258.79 153.966 262.369 148.806 265.843 143.489C263.026 144.042 260.209 144.595 257.392 145.149C256.436 145.337 255.479 145.525 254.523 145.712C253.14 145.983 251.758 146.255 250.375 146.527C249.954 146.61 249.534 146.692 249.1 146.777C246.535 147.282 243.983 147.834 241.432 148.408C240.147 148.691 238.86 148.934 237.564 149.153C237.119 149.228 236.674 149.304 236.216 149.381C235.771 149.456 235.326 149.53 234.868 149.606C234.403 149.685 233.938 149.764 233.46 149.845C232.332 150.035 231.203 150.225 230.075 150.413C231.864 145.042 234.858 139.954 239.888 137.246C242.03 136.214 244.207 135.289 246.403 134.382C247.338 133.973 248.272 133.562 249.205 133.149C251.06 132.331 252.919 131.526 254.784 130.733C258.851 129 262.856 127.131 266.869 125.271C269.401 124.103 271.929 122.974 274.522 121.952C280.855 119.367 283.708 116.328 287.101 110.386C291.605 102.848 298.822 95.0444 306.371 90.7533C306.74 90.5178 307.109 90.2824 307.49 90.0397C309.807 88.6375 311.318 88.3335 314.032 89.0471Z" fill="#006AFF"/>
<path d="M296.345 129.394C297.104 130.859 296.675 131.647 296.286 133.243C296.147 133.83 296.008 134.417 295.864 135.021C295.711 135.656 295.558 136.291 295.4 136.945C294.044 142.695 292.918 148.428 292.047 154.277C291.965 154.806 291.883 155.334 291.798 155.879C291.696 156.571 291.696 156.571 291.593 157.276C290.957 159.818 289.565 161.567 287.767 163.395C287.425 163.746 287.083 164.096 286.73 164.458C286.408 164.784 286.087 165.111 285.755 165.447C285.352 165.903 285.352 165.903 284.94 166.368C284.247 167.035 284.247 167.035 283.222 167.054C282.836 165.071 282.458 163.086 282.082 161.101C281.973 160.544 281.864 159.986 281.752 159.411C280.268 151.531 280.268 151.531 281.653 149.022C282.026 148.589 282.4 148.156 282.785 147.709C283.407 146.964 283.407 146.964 284.04 146.204C284.691 145.446 284.691 145.446 285.355 144.672C289.366 139.795 292.895 134.688 296.345 129.394Z" fill="#006AFF"/>
<path d="M248.249 162.013C248.591 162.177 248.932 162.342 249.284 162.512C248.802 163.068 248.802 163.068 248.31 163.635C246.011 166.291 243.723 168.954 241.497 171.673C241.253 171.962 241.01 172.251 240.759 172.548C240.532 172.844 240.306 173.139 240.073 173.444C238.345 174.898 235.741 174.378 233.611 174.244C232.032 174.007 230.531 173.676 228.977 173.294C231.499 169.044 233.722 167.147 238.449 165.806C241.564 164.893 244.446 163.898 247.331 162.38C247.634 162.259 247.937 162.138 248.249 162.013Z" fill="#006AFF"/>
<path d="M80.1382 247.86C80.1738 249.709 79.8132 250.087 78.7342 251.523C77.8316 252.737 76.9859 253.927 76.1767 255.21C75.6724 255.391 75.1681 255.572 74.6486 255.759C75.3317 253.501 76.3922 252.086 77.942 250.337C78.3522 249.871 78.7624 249.404 79.185 248.923C79.6568 248.397 79.6568 248.397 80.1382 247.86Z" fill="white"/>
<path d="M296.345 129.394C297.023 130.704 296.79 131.166 296.438 132.574C296.345 132.952 296.253 133.33 296.158 133.72C296.046 134.154 296.046 134.154 295.932 134.597C295.587 134.261 295.242 133.924 294.887 133.578C294.386 133.931 293.885 134.283 293.369 134.646C294.18 132.771 295.241 131.104 296.345 129.394Z" fill="white"/>
<path d="M248.249 162.012C248.591 162.177 248.932 162.342 249.284 162.512C248.455 163.385 247.626 164.258 246.771 165.158C246.253 164.654 245.736 164.149 245.203 163.63C246.199 163.056 247.217 162.518 248.249 162.012Z" fill="white"/>
</svg>
